<svg xmlns="http://www.w3.org/2000/svg" version="1.1" xmlns:xlink="http://www.w3.org/1999/xlink" xmlns:svgjs="http://svgjs.dev/svgjs" width="1440" height="560" preserveAspectRatio="none" viewBox="0 0 1440 560"><g mask="url(&quot;#SvgjsMask2373&quot;)" fill="none"><rect width="1440" height="560" x="0" y="0" fill="url(&quot;#SvgjsLinearGradient2374&quot;)"></rect><path d="M171 111L466 -184" stroke-width="6" stroke="url(&quot;#SvgjsLinearGradient2375&quot;)" stroke-linecap="round" class="BottomLeft"></path><path d="M42 334L302 74" stroke-width="10" stroke="url(&quot;#SvgjsLinearGradient2375&quot;)" stroke-linecap="round" class="BottomLeft"></path><path d="M31 286L271 46" stroke-width="10" stroke="url(&quot;#SvgjsLinearGradient2375&quot;)" stroke-linecap="round" class="BottomLeft"></path><path d="M733 186L485 434" stroke-width="8" stroke="url(&quot;#SvgjsLinearGradient2376&quot;)" stroke-linecap="round" class="TopRight"></path><path d="M304 332L84 552" stroke-width="8" stroke="url(&quot;#SvgjsLinearGradient2376&quot;)" stroke-linecap="round" class="TopRight"></path><path d="M1303 136L1095 344" stroke-width="10" stroke="url(&quot;#SvgjsLinearGradient2375&quot;)" stroke-linecap="round" class="BottomLeft"></path><path d="M847 162L685 324" stroke-width="8" stroke="url(&quot;#SvgjsLinearGradient2375&quot;)" stroke-linecap="round" class="BottomLeft"></path><path d="M1249 225L1402 72" stroke-width="8" stroke="url(&quot;#SvgjsLinearGradient2375&quot;)" stroke-linecap="round" class="BottomLeft"></path><path d="M968 178L780 366" stroke-width="6" stroke="url(&quot;#SvgjsLinearGradient2376&quot;)" stroke-linecap="round" class="TopRight"></path><path d="M93 225L-222 540" stroke-width="8" stroke="url(&quot;#SvgjsLinearGradient2375&quot;)" stroke-linecap="round" class="BottomLeft"></path><path d="M795 108L545 358" stroke-width="10" stroke="url(&quot;#SvgjsLinearGradient2375&quot;)" stroke-linecap="round" class="BottomLeft"></path><path d="M1228 472L908 792" stroke-width="8" stroke="url(&quot;#SvgjsLinearGradient2375&quot;)" stroke-linecap="round" class="BottomLeft"></path><path d="M460 452L732 180" stroke-width="6" stroke="url(&quot;#SvgjsLinearGradient2375&quot;)" stroke-linecap="round" class="BottomLeft"></path><path d="M1440 379L1211 608" stroke-width="10" stroke="url(&quot;#SvgjsLinearGradient2375&quot;)" stroke-linecap="round" class="BottomLeft"></path><path d="M488 189L771 -94" stroke-width="10" stroke="url(&quot;#SvgjsLinearGradient2375&quot;)" stroke-linecap="round" class="BottomLeft"></path><path d="M391 113L614 -110" stroke-width="10" stroke="url(&quot;#SvgjsLinearGradient2375&quot;)" stroke-linecap="round" class="BottomLeft"></path><path d="M783 419L467 735" stroke-width="10" stroke="url(&quot;#SvgjsLinearGradient2376&quot;)" stroke-linecap="round" class="TopRight"></path><path d="M1354 288L985 657" stroke-width="10" stroke="url(&quot;#SvgjsLinearGradient2375&quot;)" stroke-linecap="round" class="BottomLeft"></path><path d="M361 201L-40 602" stroke-width="10" stroke="url(&quot;#SvgjsLinearGradient2376&quot;)" stroke-linecap="round" class="TopRight"></path><path d="M1252 330L877 705" stroke-width="6" stroke="url(&quot;#SvgjsLinearGradient2375&quot;)" stroke-linecap="round" class="BottomLeft"></path><path d="M758 12L980 -210" stroke-width="6" stroke="url(&quot;#SvgjsLinearGradient2376&quot;)" stroke-linecap="round" class="TopRight"></path><path d="M778 479L1006 251" stroke-width="10" stroke="url(&quot;#SvgjsLinearGradient2375&quot;)" stroke-linecap="round" class="BottomLeft"></path><path d="M1235 548L1563 220" stroke-width="10" stroke="url(&quot;#SvgjsLinearGradient2375&quot;)" stroke-linecap="round" class="BottomLeft"></path><path d="M147 318L-163 628" stroke-width="10" stroke="url(&quot;#SvgjsLinearGradient2376&quot;)" stroke-linecap="round" class="TopRight"></path><path d="M142 234L-6 382" stroke-width="6" stroke="url(&quot;#SvgjsLinearGradient2375&quot;)" stroke-linecap="round" class="BottomLeft"></path><path d="M938 180L713 405" stroke-width="10" stroke="url(&quot;#SvgjsLinearGradient2376&quot;)" stroke-linecap="round" class="TopRight"></path><path d="M962 86L1322 -274" stroke-width="6" stroke="url(&quot;#SvgjsLinearGradient2376&quot;)" stroke-linecap="round" class="TopRight"></path><path d="M1036 59L1302 -207" stroke-width="8" stroke="url(&quot;#SvgjsLinearGradient2375&quot;)" stroke-linecap="round" class="BottomLeft"></path><path d="M277 486L557 206" stroke-width="10" stroke="url(&quot;#SvgjsLinearGradient2376&quot;)" stroke-linecap="round" class="TopRight"></path><path d="M1263 116L1606 -227" stroke-width="6" stroke="url(&quot;#SvgjsLinearGradient2375&quot;)" stroke-linecap="round" class="BottomLeft"></path><path d="M1350 39L1665 -276" stroke-width="6" stroke="url(&quot;#SvgjsLinearGradient2375&quot;)" stroke-linecap="round" class="BottomLeft"></path><path d="M1342 281L1130 493" stroke-width="8" stroke="url(&quot;#SvgjsLinearGradient2375&quot;)" stroke-linecap="round" class="BottomLeft"></path><path d="M268 453L453 268" stroke-width="8" stroke="url(&quot;#SvgjsLinearGradient2376&quot;)" stroke-linecap="round" class="TopRight"></path><path d="M309 142L35 416" stroke-width="8" stroke="url(&quot;#SvgjsLinearGradient2375&quot;)" stroke-linecap="round" class="BottomLeft"></path><path d="M1197 246L1039 404" stroke-width="6" stroke="url(&quot;#SvgjsLinearGradient2376&quot;)" stroke-linecap="round" class="TopRight"></path><path d="M747 399L891 255" stroke-width="10" stroke="url(&quot;#SvgjsLinearGradient2375&quot;)" stroke-linecap="round" class="BottomLeft"></path><path d="M38 141L224 -45" stroke-width="10" stroke="url(&quot;#SvgjsLinearGradient2375&quot;)" stroke-linecap="round" class="BottomLeft"></path><path d="M1378 206L1142 442" stroke-width="6" stroke="url(&quot;#SvgjsLinearGradient2375&quot;)" stroke-linecap="round" class="BottomLeft"></path><path d="M1259 420L1616 63" stroke-width="10" stroke="url(&quot;#SvgjsLinearGradient2375&quot;)" stroke-linecap="round" class="BottomLeft"></path></g><defs><mask id="SvgjsMask2373"><rect width="1440" height="560" fill="#ffffff"></rect></mask><linearGradient x1="15.28%" y1="-39.29%" x2="84.72%" y2="139.29%" gradientUnits="userSpaceOnUse" id="SvgjsLinearGradient2374"><stop stop-color="#0e2a47" offset="0"></stop><stop stop-color="rgba(0, 0, 0, 1)" offset="1"></stop></linearGradient><linearGradient x1="100%" y1="0%" x2="0%" y2="100%" id="SvgjsLinearGradient2375"><stop stop-color="rgba(28, 83, 142, 0)" offset="0"></stop><stop stop-color="#1c538e" offset="1"></stop></linearGradient><linearGradient x1="0%" y1="100%" x2="100%" y2="0%" id="SvgjsLinearGradient2376"><stop stop-color="rgba(28, 83, 142, 0)" offset="0"></stop><stop stop-color="#1c538e" offset="1"></stop></linearGradient></defs></svg>